<mxfile host="app.diagrams.net" modified="2023-10-11T22:55:38.898Z" agent="Mozilla/5.0 (Windows NT 10.0; Win64; x64) AppleWebKit/537.36 (KHTML, like Gecko) Chrome/117.0.0.0 Safari/537.36" etag="WEErxSol6ARNSdJ524L6" version="22.0.4" type="github">
  <diagram name="Page-1" id="edf60f1a-56cd-e834-aa8a-f176f3a09ee4">
    <mxGraphModel dx="875" dy="-398" grid="1" gridSize="10" guides="1" tooltips="1" connect="1" arrows="1" fold="1" page="1" pageScale="1" pageWidth="1100" pageHeight="850" background="none" math="0" shadow="0">
      <root>
        <mxCell id="0" />
        <mxCell id="1" parent="0" />
        <mxCell id="60e70716793133e9-30" value="End" style="strokeWidth=1;html=1;shape=mxgraph.flowchart.terminator;whiteSpace=wrap;rounded=0;shadow=1;labelBackgroundColor=none;fontFamily=Verdana;fontSize=8;align=center;" parent="1" vertex="1">
          <mxGeometry x="440" y="1530" width="60" height="30" as="geometry" />
        </mxCell>
        <mxCell id="KwgkK-wUCFKTMF3TRSLc-38" value="" style="edgeStyle=orthogonalEdgeStyle;rounded=0;orthogonalLoop=1;jettySize=auto;html=1;" edge="1" parent="1" source="KwgkK-wUCFKTMF3TRSLc-3" target="KwgkK-wUCFKTMF3TRSLc-6">
          <mxGeometry relative="1" as="geometry" />
        </mxCell>
        <mxCell id="KwgkK-wUCFKTMF3TRSLc-1" value="Start" style="ellipse;whiteSpace=wrap;html=1;" vertex="1" parent="1">
          <mxGeometry x="430" y="850" width="80" height="30" as="geometry" />
        </mxCell>
        <mxCell id="KwgkK-wUCFKTMF3TRSLc-12" value="" style="edgeStyle=orthogonalEdgeStyle;rounded=0;orthogonalLoop=1;jettySize=auto;html=1;" edge="1" parent="1" source="KwgkK-wUCFKTMF3TRSLc-6" target="KwgkK-wUCFKTMF3TRSLc-11">
          <mxGeometry relative="1" as="geometry" />
        </mxCell>
        <mxCell id="KwgkK-wUCFKTMF3TRSLc-40" value="" style="edgeStyle=orthogonalEdgeStyle;rounded=0;orthogonalLoop=1;jettySize=auto;html=1;" edge="1" parent="1" source="KwgkK-wUCFKTMF3TRSLc-7" target="KwgkK-wUCFKTMF3TRSLc-8">
          <mxGeometry relative="1" as="geometry" />
        </mxCell>
        <mxCell id="KwgkK-wUCFKTMF3TRSLc-6" value="Enter weigth of popcorn bag" style="rounded=0;whiteSpace=wrap;html=1;" vertex="1" parent="1">
          <mxGeometry x="410" y="945" width="120" height="60" as="geometry" />
        </mxCell>
        <mxCell id="KwgkK-wUCFKTMF3TRSLc-16" value="" style="edgeStyle=orthogonalEdgeStyle;rounded=0;orthogonalLoop=1;jettySize=auto;html=1;" edge="1" parent="1" source="KwgkK-wUCFKTMF3TRSLc-7" target="KwgkK-wUCFKTMF3TRSLc-15">
          <mxGeometry relative="1" as="geometry" />
        </mxCell>
        <mxCell id="KwgkK-wUCFKTMF3TRSLc-42" value="" style="edgeStyle=orthogonalEdgeStyle;rounded=0;orthogonalLoop=1;jettySize=auto;html=1;" edge="1" parent="1" source="KwgkK-wUCFKTMF3TRSLc-8" target="KwgkK-wUCFKTMF3TRSLc-36">
          <mxGeometry relative="1" as="geometry" />
        </mxCell>
        <mxCell id="KwgkK-wUCFKTMF3TRSLc-8" value="Listen to determine the start of microwave" style="rounded=1;whiteSpace=wrap;html=1;" vertex="1" parent="1">
          <mxGeometry x="410" y="1090" width="120" height="40" as="geometry" />
        </mxCell>
        <mxCell id="KwgkK-wUCFKTMF3TRSLc-30" value="" style="edgeStyle=orthogonalEdgeStyle;rounded=0;orthogonalLoop=1;jettySize=auto;html=1;entryX=0.5;entryY=0;entryDx=0;entryDy=0;exitX=0.537;exitY=0.946;exitDx=0;exitDy=0;exitPerimeter=0;" edge="1" parent="1" source="KwgkK-wUCFKTMF3TRSLc-36" target="KwgkK-wUCFKTMF3TRSLc-20">
          <mxGeometry relative="1" as="geometry">
            <mxPoint x="470" y="1220" as="sourcePoint" />
          </mxGeometry>
        </mxCell>
        <mxCell id="KwgkK-wUCFKTMF3TRSLc-35" style="edgeStyle=orthogonalEdgeStyle;rounded=0;orthogonalLoop=1;jettySize=auto;html=1;exitX=1;exitY=0.5;exitDx=0;exitDy=0;" edge="1" parent="1" source="KwgkK-wUCFKTMF3TRSLc-36" target="60e70716793133e9-30">
          <mxGeometry relative="1" as="geometry">
            <mxPoint x="610" y="1540" as="targetPoint" />
            <mxPoint x="530" y="1190" as="sourcePoint" />
            <Array as="points">
              <mxPoint x="585" y="1190" />
              <mxPoint x="585" y="1480" />
              <mxPoint x="470" y="1480" />
            </Array>
          </mxGeometry>
        </mxCell>
        <mxCell id="KwgkK-wUCFKTMF3TRSLc-10" value="Inicial time T = 0" style="rounded=0;whiteSpace=wrap;html=1;" vertex="1" parent="1">
          <mxGeometry x="690" y="1175" width="110" height="30" as="geometry" />
        </mxCell>
        <mxCell id="KwgkK-wUCFKTMF3TRSLc-11" value="Weight = Wgt" style="rounded=0;whiteSpace=wrap;html=1;" vertex="1" parent="1">
          <mxGeometry x="570" y="960" width="120" height="30" as="geometry" />
        </mxCell>
        <mxCell id="KwgkK-wUCFKTMF3TRSLc-15" value="N = Wgt/Kernel" style="whiteSpace=wrap;html=1;rounded=1;arcSize=0;" vertex="1" parent="1">
          <mxGeometry x="590" y="1035" width="110" height="30" as="geometry" />
        </mxCell>
        <mxCell id="KwgkK-wUCFKTMF3TRSLc-18" value="Kernel weight = Kernel&lt;br&gt;Average time gap = Gap&lt;br&gt;Filling Rate = FR (in percentage)&lt;br&gt;Critical Time befor burning = CT" style="whiteSpace=wrap;html=1;" vertex="1" parent="1">
          <mxGeometry x="111" y="960" width="200" height="100" as="geometry" />
        </mxCell>
        <mxCell id="KwgkK-wUCFKTMF3TRSLc-33" value="" style="edgeStyle=orthogonalEdgeStyle;rounded=0;orthogonalLoop=1;jettySize=auto;html=1;" edge="1" parent="1" source="KwgkK-wUCFKTMF3TRSLc-20" target="KwgkK-wUCFKTMF3TRSLc-24">
          <mxGeometry relative="1" as="geometry" />
        </mxCell>
        <mxCell id="KwgkK-wUCFKTMF3TRSLc-20" value="Count every pop n&amp;nbsp;" style="rounded=0;whiteSpace=wrap;html=1;" vertex="1" parent="1">
          <mxGeometry x="410" y="1260" width="120" height="60" as="geometry" />
        </mxCell>
        <mxCell id="KwgkK-wUCFKTMF3TRSLc-22" value="First Pop Time Starts&lt;br&gt;FPT = 0" style="whiteSpace=wrap;html=1;" vertex="1" parent="1">
          <mxGeometry x="690" y="1265" width="120" height="30" as="geometry" />
        </mxCell>
        <mxCell id="KwgkK-wUCFKTMF3TRSLc-34" value="" style="edgeStyle=orthogonalEdgeStyle;rounded=0;orthogonalLoop=1;jettySize=auto;html=1;" edge="1" parent="1" source="KwgkK-wUCFKTMF3TRSLc-24" target="KwgkK-wUCFKTMF3TRSLc-26">
          <mxGeometry relative="1" as="geometry" />
        </mxCell>
        <mxCell id="KwgkK-wUCFKTMF3TRSLc-24" value="Sound first alert to stop the microwave when n&amp;gt;N*FR or FPT &amp;gt; CT" style="rounded=1;whiteSpace=wrap;html=1;" vertex="1" parent="1">
          <mxGeometry x="385" y="1340" width="170" height="50" as="geometry" />
        </mxCell>
        <mxCell id="KwgkK-wUCFKTMF3TRSLc-25" value="Show filling bar percentage&lt;br&gt;FBar = n/N&lt;br&gt;show Critial time bar&lt;br&gt;CTBar = FPT/CT" style="rounded=1;whiteSpace=wrap;html=1;" vertex="1" parent="1">
          <mxGeometry x="265" y="1245" width="120" height="90" as="geometry" />
        </mxCell>
        <mxCell id="KwgkK-wUCFKTMF3TRSLc-37" style="edgeStyle=orthogonalEdgeStyle;rounded=0;orthogonalLoop=1;jettySize=auto;html=1;entryX=0;entryY=0.5;entryDx=0;entryDy=0;" edge="1" parent="1" source="KwgkK-wUCFKTMF3TRSLc-26" target="KwgkK-wUCFKTMF3TRSLc-36">
          <mxGeometry relative="1" as="geometry">
            <Array as="points">
              <mxPoint x="250" y="1430" />
              <mxPoint x="250" y="1190" />
            </Array>
          </mxGeometry>
        </mxCell>
        <mxCell id="KwgkK-wUCFKTMF3TRSLc-26" value="Sound second alert when n&amp;gt;N" style="rounded=1;whiteSpace=wrap;html=1;" vertex="1" parent="1">
          <mxGeometry x="410" y="1410" width="120" height="40" as="geometry" />
        </mxCell>
        <mxCell id="KwgkK-wUCFKTMF3TRSLc-36" value="While the microwave is on" style="rhombus;whiteSpace=wrap;html=1;" vertex="1" parent="1">
          <mxGeometry x="375" y="1150" width="190" height="80" as="geometry" />
        </mxCell>
        <mxCell id="KwgkK-wUCFKTMF3TRSLc-39" value="" style="edgeStyle=orthogonalEdgeStyle;rounded=0;orthogonalLoop=1;jettySize=auto;html=1;" edge="1" parent="1" source="KwgkK-wUCFKTMF3TRSLc-1" target="KwgkK-wUCFKTMF3TRSLc-3">
          <mxGeometry relative="1" as="geometry">
            <mxPoint x="470" y="880" as="sourcePoint" />
            <mxPoint x="470" y="960" as="targetPoint" />
          </mxGeometry>
        </mxCell>
        <mxCell id="KwgkK-wUCFKTMF3TRSLc-3" value="Welcome and start UI" style="rounded=1;whiteSpace=wrap;html=1;" vertex="1" parent="1">
          <mxGeometry x="410" y="900" width="120" height="30" as="geometry" />
        </mxCell>
        <mxCell id="KwgkK-wUCFKTMF3TRSLc-41" value="" style="edgeStyle=orthogonalEdgeStyle;rounded=0;orthogonalLoop=1;jettySize=auto;html=1;" edge="1" parent="1" source="KwgkK-wUCFKTMF3TRSLc-6" target="KwgkK-wUCFKTMF3TRSLc-7">
          <mxGeometry relative="1" as="geometry">
            <mxPoint x="470" y="1020" as="sourcePoint" />
            <mxPoint x="470" y="1100" as="targetPoint" />
          </mxGeometry>
        </mxCell>
        <mxCell id="KwgkK-wUCFKTMF3TRSLc-7" value="Calculate number of corn kernels" style="rounded=1;whiteSpace=wrap;html=1;" vertex="1" parent="1">
          <mxGeometry x="410" y="1030" width="120" height="40" as="geometry" />
        </mxCell>
      </root>
    </mxGraphModel>
  </diagram>
</mxfile>
